<svg xmlns="http://www.w3.org/2000/svg" xmlns:xlink="http://www.w3.org/1999/xlink" viewBox="0,0,256,256" width="48px" height="48px"><g transform="translate(-3.84,-3.84) scale(1.03,1.03)"><g fill-opacity="0" fill="#dddddd" fill-rule="nonzero" stroke="none" stroke-width="1" stroke-linecap="butt" stroke-linejoin="miter" stroke-miterlimit="10" stroke-dasharray="" stroke-dashoffset="0" font-family="none" font-weight="none" font-size="none" text-anchor="none" style="mix-blend-mode: normal"><path d="M3.72816,252.27184v-248.54369h248.54369v248.54369z" id="bgRectangle"></path></g><g fill="none" fill-rule="nonzero" stroke="none" stroke-width="1" stroke-linecap="butt" stroke-linejoin="none" stroke-miterlimit="10" stroke-dasharray="" stroke-dashoffset="0" font-family="none" font-weight="none" font-size="none" text-anchor="none" style="mix-blend-mode: normal"><path transform="translate(256.09067,0.09067) rotate(90) scale(5.33333,5.33333)" d="M26,17.428l5,2.836v17.811l-7,3.964l-7,-3.969v-17.759l5,-2.835v17.683l2.004,1.134l1.996,-1.129zM40,15.042v17.944l-5,2.827v-17.854l-10.996,-6.217l-11.004,6.222v17.844l-5,-2.827v-18.002l16,-8.984z" id="strokeMainSVG" fill-opacity="0.52941" fill="#1a1919" stroke-opacity="0.52941" stroke="#1a1919" stroke-linejoin="round"></path><g transform="translate(256.09067,0.09067) rotate(90) scale(5.33333,5.33333)" fill="#1e75f4" stroke="none" stroke-linejoin="miter"><path d="M26,35.164l-1.996,1.129l-2.004,-1.134v-17.683l-5,2.835v17.759l7,3.969l7,-3.964v-17.811l-5,-2.836z"></path><path d="M24,5.995l-16,8.984v18.002l5,2.827v-17.844l11.004,-6.222l10.996,6.217v17.854l5,-2.827v-17.944z"></path></g></g><g fill="none" fill-rule="nonzero" stroke="none" stroke-width="1" stroke-linecap="butt" stroke-linejoin="miter" stroke-miterlimit="10" stroke-dasharray="" stroke-dashoffset="0" font-family="none" font-weight="none" font-size="none" text-anchor="none" style="mix-blend-mode: normal"><g transform="translate(173.33333,56) scale(2.93333,2.93333)" id="overlay"><path d="M20,10c0,5.5 -4.5,10 -10,10c-5.5,0 -10,-4.5 -10,-10c0,-5.5 4.5,-10 10,-10c5.5,0 10,4.5 10,10" fill="#43a047"></path><path d="M14.5,5.4l-5.7,5.6l-2.7,-2.7l-2.1,2.2l4.8,4.8l7.8,-7.8z" fill="#dcedc8"></path></g></g></g></svg>